<svg width="28" height="18" viewBox="0 0 28 18" fill="none" xmlns="http://www.w3.org/2000/svg">
    <path d="M3.5 0C1.84531 0 0.5 1.34531 0.5 3V15C0.5 16.6547 1.84531 18 3.5 18H24.5C26.1547 18 27.5 16.6547 27.5 15V3C27.5 1.34531 26.1547 0 24.5 0H3.5ZM6.5 15H3.5V12C5.15469 12 6.5 13.3453 6.5 15ZM3.5 6V3H6.5C6.5 4.65469 5.15469 6 3.5 6ZM21.5 15C21.5 13.3453 22.8453 12 24.5 12V15H21.5ZM24.5 6C22.8453 6 21.5 4.65469 21.5 3H24.5V6ZM8.75 9C8.75 8.31056 8.8858 7.62787 9.14963 6.99091C9.41347 6.35395 9.80018 5.7752 10.2877 5.28769C10.7752 4.80018 11.354 4.41347 11.9909 4.14963C12.6279 3.8858 13.3106 3.75 14 3.75C14.6894 3.75 15.3721 3.8858 16.0091 4.14963C16.646 4.41347 17.2248 4.80018 17.7123 5.28769C18.1998 5.7752 18.5865 6.35395 18.8504 6.99091C19.1142 7.62787 19.25 8.31056 19.25 9C19.25 9.68944 19.1142 10.3721 18.8504 11.0091C18.5865 11.646 18.1998 12.2248 17.7123 12.7123C17.2248 13.1998 16.646 13.5865 16.0091 13.8504C15.3721 14.1142 14.6894 14.25 14 14.25C13.3106 14.25 12.6279 14.1142 11.9909 13.8504C11.354 13.5865 10.7752 13.1998 10.2877 12.7123C9.80018 12.2248 9.41347 11.646 9.14963 11.0091C8.8858 10.3721 8.75 9.68944 8.75 9ZM12.3125 6.75C12.3125 7.20469 12.6359 7.57969 13.0625 7.66875V9.9375H12.875C12.3594 9.9375 11.9375 10.3594 11.9375 10.875C11.9375 11.3906 12.3594 11.8125 12.875 11.8125H15.125C15.6406 11.8125 16.0625 11.3906 16.0625 10.875C16.0625 10.3594 15.6406 9.9375 15.125 9.9375H14.9375V6.75C14.9375 6.23438 14.5156 5.8125 14 5.8125H13.25C12.7344 5.8125 12.3125 6.23438 12.3125 6.75Z" fill="white"/>
</svg>
