<svg width="17" height="20" viewBox="0 0 17 20" fill="none" xmlns="http://www.w3.org/2000/svg">
    <path d="M16.5 10C16.5006 10.2547 16.4353 10.5051 16.3105 10.7271C16.1856 10.949 16.0055 11.1349 15.7875 11.2666L2.28 19.5297C2.05227 19.6691 1.79144 19.7453 1.52445 19.7502C1.25746 19.7552 0.993989 19.6887 0.76125 19.5578C0.530728 19.4289 0.338696 19.241 0.204904 19.0132C0.0711107 18.7855 0.000385179 18.5263 0 18.2622V1.73781C0.000385179 1.47371 0.0711107 1.21447 0.204904 0.986757C0.338696 0.759045 0.530728 0.57108 0.76125 0.44219C0.993989 0.311267 1.25746 0.244848 1.52445 0.249792C1.79144 0.254736 2.05227 0.330865 2.28 0.470315L15.7875 8.73344C16.0055 8.86513 16.1856 9.05099 16.3105 9.27293C16.4353 9.49487 16.5006 9.74535 16.5 10Z" fill="#F7F7F6"/>
</svg>
