<svg width="20" height="20" viewBox="0 0 20 20" fill="none" xmlns="http://www.w3.org/2000/svg">
    <path d="M8.99998 4H12L15.29 0.700004C15.3829 0.606275 15.4935 0.531881 15.6154 0.481112C15.7373 0.430344 15.868 0.404205 16 0.404205C16.132 0.404205 16.2627 0.430344 16.3846 0.481112C16.5064 0.531881 16.617 0.606275 16.71 0.700004L19.29 3.29C19.4762 3.47737 19.5808 3.73082 19.5808 3.995C19.5808 4.25919 19.4762 4.51264 19.29 4.7L17 7H8.99998V9C8.99998 9.26522 8.89462 9.51957 8.70709 9.70711C8.51955 9.89465 8.2652 10 7.99998 10C7.73477 10 7.48041 9.89465 7.29288 9.70711C7.10534 9.51957 6.99998 9.26522 6.99998 9V6C6.99998 5.46957 7.2107 4.96086 7.58577 4.58579C7.96084 4.21072 8.46955 4 8.99998 4ZM2.99998 9V13L0.709982 15.29C0.523731 15.4774 0.419189 15.7308 0.419189 15.995C0.419189 16.2592 0.523731 16.5126 0.709982 16.7L3.28998 19.29C3.38295 19.3837 3.49355 19.4581 3.61541 19.5089C3.73726 19.5597 3.86797 19.5858 3.99998 19.5858C4.13199 19.5858 4.2627 19.5597 4.38456 19.5089C4.50642 19.4581 4.61702 19.3837 4.70998 19.29L8.99998 15H13C13.2652 15 13.5196 14.8946 13.7071 14.7071C13.8946 14.5196 14 14.2652 14 14V13H15C15.2652 13 15.5196 12.8946 15.7071 12.7071C15.8946 12.5196 16 12.2652 16 12V11H17C17.2652 11 17.5196 10.8946 17.7071 10.7071C17.8946 10.5196 18 10.2652 18 10V9H11V10C11 10.5304 10.7893 11.0391 10.4142 11.4142C10.0391 11.7893 9.53041 12 8.99998 12H6.99998C6.46955 12 5.96084 11.7893 5.58577 11.4142C5.2107 11.0391 4.99998 10.5304 4.99998 10V7L2.99998 9Z" fill="white"/>
</svg>
