<svg width="16" height="24" viewBox="0 0 16 24" fill="none" xmlns="http://www.w3.org/2000/svg">
    <path d="M4.27995 0.537768C4.32566 0.382261 4.42052 0.245746 4.55031 0.148668C4.68011 0.0515894 4.83787 -0.000827202 4.99995 -0.000732293H11C11.1187 -0.000642131 11.2358 0.0276566 11.3415 0.0818342C11.4472 0.136012 11.5385 0.214519 11.6079 0.310893C11.6774 0.407267 11.7229 0.518751 11.7408 0.636168C11.7587 0.753586 11.7485 0.873578 11.711 0.986268L9.04095 8.99927H14.75C14.8904 8.99917 15.0281 9.03851 15.1472 9.11281C15.2664 9.18712 15.3624 9.2934 15.4241 9.41955C15.4859 9.5457 15.5109 9.68665 15.4965 9.82636C15.4821 9.96606 15.4287 10.0989 15.3425 10.2098L4.84245 23.7098C4.73489 23.8487 4.58194 23.9455 4.4103 23.9832C4.23866 24.0209 4.05924 23.9972 3.90333 23.9161C3.74742 23.835 3.62493 23.7018 3.55724 23.5396C3.48955 23.3774 3.48095 23.1966 3.53295 23.0288L6.23445 14.2493H1.24995C1.13335 14.2493 1.01834 14.2222 0.914046 14.1701C0.809758 14.1179 0.719067 14.0422 0.649175 13.9488C0.579283 13.8555 0.532116 13.7471 0.51142 13.6324C0.490724 13.5176 0.497069 13.3996 0.529951 13.2878L4.27995 0.537768Z" fill="white"/>
</svg>
